<svg xmlns="http://www.w3.org/2000/svg" xmlns:xlink="http://www.w3.org/1999/xlink" version="1.1" width="456.1pt" height="456.1pt" viewBox="0 0 456.1 456.1">
<defs>
<path id="font_1_37" d="M.057998659 0V.6669922H.39698792C.46699525 .6669922 .5179901 .6489868 .5509949 .6139984 .58299258 .5779877 .598999 .5379944 .598999 .49198915 .598999 .45899964 .58999636 .42900086 .57099917 .4019928 .5529938 .37599183 .5249939 .35699464 .48799134 .34700013 .57398989 .32598878 .61698916 .27398683 .61698916 .19099427 .61698916 .14199829 .60198977 .09799194 .57099917 .05899048 .54100039 .019989014 .47599793 0 .37599183 0H.057998659M.24598694 .4119873H.34199525C.3659973 .4119873 .38198854 .41799928 .3919983 .42999269 .4019928 .44198609 .40699769 .45498658 .40699769 .46899415 .40699769 .5059967 .38398744 .5239868 .33799745 .5239868H.24598694V.4119873M.24598694 .147995H.34700013C.37199403 .147995 .3899994 .1539917 .4019928 .16699219 .41299439 .1789856 .4189911 .19299317 .4189911 .20799256 .4189911 .22399903 .41299439 .23799134 .4019928 .25099183 .3909912 .2639923 .36999513 .269989 .33999635 .269989H.24598694V.147995Z"/>
<path id="font_1_40" d="M.55999758 .15899658V0H.057998659V.6669922H.55999758V.5130005H.25898744V.41600038H.5019989V.2679901H.25898744V.15899658H.55999758Z"/>
<path id="font_1_36" d="M.4269867 0 .3899994 .1309967H.20799256L.16899109 0H.0029907227L.20899964 .6669922H.42599488L.6349945 0H.4269867M.24499512 .2769928H.35198976L.29899598 .46998597 .24499512 .2769928Z"/>
<path id="font_1_48" d="M.7829895 .6669922V0H.59298709V.47698976L.46899415 0H.33898927L.21099854 .47698976V0H.057998659V.6669922H.32499696L.42199708 .31298829 .5139923 .6669922H.7829895Z"/>
<path id="font_1_53" d="M.651001 0H.42399598L.32598878 .25498963H.2630005V0H.057998659V.6669922H.4059906C.48298646 .6669922 .54299929 .6489868 .58499148 .61299136 .6279907 .57699587 .6489868 .5299988 .6489868 .47099305 .6489868 .43199159 .6409912 .397995 .6259918 .36898805 .6100006 .33898927 .5779877 .31298829 .5299988 .29100038L.651001 0M.2630005 .39698792H.35099793C.37599183 .39698792 .39698792 .4019928 .41299439 .41299439 .42799378 .42399598 .43598939 .43998719 .43598939 .46099855 .43598939 .5039978 .4099884 .5249939 .35699464 .5249939H.2630005V.39698792Z"/>
<path id="font_1_44" d="M.2630005 .6669922V0H.057998659V.6669922H.2630005Z"/>
<path id="font_1_55" d="M.33198548 .5069885V0H.13798523V.5069885H0V.6669922H.46998597V.5069885H.33198548Z"/>
</defs>
<g id="layer_1" data-name="Layer 1">
<path transform="matrix(1,0,0,-1,1,455.1)" d="M226.5233 313.5954C233.0453 313.5662 250.9588 312.0216 258.6702 311.0698L262.3209 310.5737C262.3728 310.6661 262.5245 310.5034 262.614 310.4461 259.0682 309.8809 255.3888 310.5286 251.8143 310.1913 239.8706 309.0648 236.2192 309.1045 223.31 306.5185 208.7538 303.6033 185.8218 293.8623 174.6848 284.8416 168.1163 279.5213 166.5709 277.9245 161.1088 271.6231L156.6026 265.6582C153.8847 261.8124 150.59 256.2744 149.9584 250.8542 152.3693 251.8466 155.1076 255.4435 156.894 257.4249 162.7418 263.9123 171.9604 271.597 181.228 272.6765 177.3034 268.293 169.9149 263.9908 169.4713 255.2423 170.8492 255.8676 171.5681 256.4912 172.5316 257.2628 185.2169 267.4216 201.0728 275.7461 218.274 275.5542 217.9823 275.1205 217.5148 274.5459 217.1548 274.1814L213.4029 271.2472C211.5108 269.6301 210.3636 268.5991 208.8343 266.6047 205.8316 262.6877 204.6288 259.1212 203.6466 253.8731 205.9413 254.1353 213.6328 262.9054 221.0777 266.9068 228.145 270.7053 234.0706 273.8055 242.0306 276.4868 256.9056 281.497 277.5356 284.7937 296.1969 282.7987 305.8316 281.7689 313.1799 281.1954 322.403 278.462 335.8449 274.4776 352.768 267.3196 362.3185 257.2509 363.0107 256.5204 363.5246 256.0819 364.1882 255.3469 381.3338 236.3445 376.6609 208.7473 362.7541 191.4015 361.6373 190.0089 360.3129 188.0779 359.1414 187.054L351.5672 179.562C350.3645 178.6465 348.4304 177.2039 347.3325 176.2642 342.8555 172.4346 334.3584 167.2308 328.9762 164.4715L318.6677 159.2969C295.0101 147.8979 257.1367 140.3813 230.5327 140.9451 229.739 140.3206 228.3449 140.5896 227.0154 140.5786 227.0546 138.7548 227.0806 136.9607 226.5616 135.6596 229.5865 135.6131 231.5489 135.938 234.1437 136.0511 236.8695 136.1699 239.7696 135.9692 242.5215 136.0429 285.4548 137.1991 345.3559 151.9951 375.5656 182.7794 384.6223 192.0084 390.6913 199.0505 394.8925 212.3912 399.4367 226.8227 396.913 240.0783 390.3131 252.9921 380.5673 272.0602 356.1506 288.2716 336.2984 296.9858 299.7533 313.0271 266.1352 318.5546 226.5174 318.4458Z" fill="#044c94" fill-rule="evenodd"/>
<path transform="matrix(1,0,0,-1,1,455.1)" d="M226.5616 135.6596C227.0806 136.9607 227.0546 138.7548 227.0154 140.5786 228.3449 140.5896 229.739 140.3206 230.5327 140.9451 208.3062 141.3927 184.4563 142.7165 164.1932 148.7534 151.8857 152.4197 144.1389 155.2045 131.9494 160.4633 115.3267 167.6347 92.0483 185.654 84.621 202.2993 80.6034 211.3021 78.8122 216.021 78.8136 225.7971 78.8145 237.793 80.5283 240.9517 84.4013 249.9248 85.7837 253.1271 88.0648 257.152 89.8274 259.5699 109.4522 286.4863 140.7368 301.0825 173.3267 308.7839 181.0375 310.6057 190.8896 312.1994 198.9935 312.8306L219.9121 314.0113C222.533 314.0138 223.8973 313.5844 226.5233 313.5954L226.5174 318.4458C201.7488 318.1876 164.5756 313.4614 141.0528 306.3093 128.5262 302.5009 106.5328 292.818 96.4494 285.6186 83.1883 276.1495 72.1301 267.3334 63.7475 252.9961 54.8989 237.8602 54.438 216.3569 63.5009 201.2825 69.052 192.0489 70.7156 190.336 77.8992 183.0132 80.8095 180.0465 83.6606 177.7975 86.658 175.4498 95.9788 168.1489 105.9435 162.3061 117.3637 157.1278 132.4939 150.2671 149.2824 145.0675 166.7945 141.2731 184.0022 137.5447 208.4556 135.519 226.5616 135.6596" fill="#42c8f4" fill-rule="evenodd"/>
<g id="layer_2" data-name="Corel_OTF">
</g>
<use data-text="B" xlink:href="#font_1_37" transform="matrix(74.168178,0,8.296485,-66.692,126.9912,253.32541)" fill="#124e8c"/>
<use data-text="E" xlink:href="#font_1_40" transform="matrix(74.168178,0,8.296485,-66.692,174.68134,253.32541)" fill="#124e8c"/>
<use data-text="A" xlink:href="#font_1_36" transform="matrix(74.168178,0,8.296485,-66.692,217.92139,253.32541)" fill="#124e8c"/>
<use data-text="M" xlink:href="#font_1_48" transform="matrix(74.168178,0,8.296485,-66.692,265.2407,253.32541)" fill="#124e8c"/>
<g id="layer_2" data-name="Corel_OTF">
</g>
<use data-text="M" xlink:href="#font_1_48" transform="matrix(41.28906,0,6.33761,-39.413,124.9545,283.73463)" fill="#124e8c"/>
<use data-text="A" xlink:href="#font_1_36" transform="matrix(41.28906,0,6.33761,-39.413,159.67859,283.73463)" fill="#124e8c"/>
<use data-text="R" xlink:href="#font_1_53" transform="matrix(41.28906,0,6.33761,-39.413,186.02101,283.73463)" fill="#124e8c"/>
<use data-text="I" xlink:href="#font_1_44" transform="matrix(41.28906,0,6.33761,-39.413,214.51047,283.73463)" fill="#124e8c"/>
<use data-text="T" xlink:href="#font_1_55" transform="matrix(41.28906,0,6.33761,-39.413,227.76425,283.73463)" fill="#124e8c"/>
<use data-text="I" xlink:href="#font_1_44" transform="matrix(41.28906,0,6.33761,-39.413,247.1701,283.73463)" fill="#124e8c"/>
<use data-text="M" xlink:href="#font_1_48" transform="matrix(41.28906,0,6.33761,-39.413,260.4239,283.73463)" fill="#124e8c"/>
<use data-text="E" xlink:href="#font_1_40" transform="matrix(41.28906,0,6.33761,-39.413,295.14799,283.73463)" fill="#124e8c"/>
<path transform="matrix(1,0,0,-1,1,455.1)" stroke-width=".5" stroke-linecap="butt" stroke-miterlimit="2.6131259" stroke-linejoin="miter" fill="none" stroke="#231f20" d="M.25 453.85H453.85V.25H.25Z"/>
</g>
</svg>
